<mxfile host="app.diagrams.net" modified="2023-07-09T09:58:00.067Z" agent="Mozilla/5.0 (X11; Ubuntu; Linux x86_64; rv:109.0) Gecko/20100101 Firefox/110.0" etag="WEdUtR79YN2DvJNCqXx6" version="21.6.1" type="device">
  <diagram name="Page-1" id="FU4-X1si3iz_4nWzJQ8F">
    <mxGraphModel dx="2210" dy="795" grid="1" gridSize="10" guides="1" tooltips="1" connect="1" arrows="1" fold="1" page="1" pageScale="1" pageWidth="850" pageHeight="1100" math="0" shadow="0">
      <root>
        <mxCell id="0" />
        <mxCell id="1" parent="0" />
        <mxCell id="5uXWiQEfqai-mg1jJIxe-3" style="edgeStyle=orthogonalEdgeStyle;rounded=0;orthogonalLoop=1;jettySize=auto;html=1;" edge="1" parent="1" source="5uXWiQEfqai-mg1jJIxe-1">
          <mxGeometry relative="1" as="geometry">
            <mxPoint x="300" y="190" as="targetPoint" />
          </mxGeometry>
        </mxCell>
        <mxCell id="5uXWiQEfqai-mg1jJIxe-1" value="select a random word" style="rounded=0;whiteSpace=wrap;html=1;fillColor=#ffe6cc;strokeColor=#d79b00;" vertex="1" parent="1">
          <mxGeometry x="240" y="110" width="120" height="60" as="geometry" />
        </mxCell>
        <mxCell id="5uXWiQEfqai-mg1jJIxe-7" style="edgeStyle=orthogonalEdgeStyle;rounded=0;orthogonalLoop=1;jettySize=auto;html=1;" edge="1" parent="1" source="5uXWiQEfqai-mg1jJIxe-4">
          <mxGeometry relative="1" as="geometry">
            <mxPoint x="300" y="270" as="targetPoint" />
          </mxGeometry>
        </mxCell>
        <mxCell id="5uXWiQEfqai-mg1jJIxe-4" value="show the number of letters in the word" style="rounded=0;whiteSpace=wrap;html=1;fillColor=#ffe6cc;strokeColor=#d79b00;" vertex="1" parent="1">
          <mxGeometry x="240" y="190" width="120" height="60" as="geometry" />
        </mxCell>
        <mxCell id="5uXWiQEfqai-mg1jJIxe-14" style="edgeStyle=orthogonalEdgeStyle;rounded=0;orthogonalLoop=1;jettySize=auto;html=1;" edge="1" parent="1" source="5uXWiQEfqai-mg1jJIxe-8">
          <mxGeometry relative="1" as="geometry">
            <mxPoint x="300" y="360" as="targetPoint" />
          </mxGeometry>
        </mxCell>
        <mxCell id="5uXWiQEfqai-mg1jJIxe-8" value="let player choose a letter" style="rounded=0;whiteSpace=wrap;html=1;fillColor=#ffe6cc;strokeColor=#d79b00;" vertex="1" parent="1">
          <mxGeometry x="240" y="270" width="120" height="60" as="geometry" />
        </mxCell>
        <mxCell id="5uXWiQEfqai-mg1jJIxe-15" style="edgeStyle=orthogonalEdgeStyle;rounded=0;orthogonalLoop=1;jettySize=auto;html=1;strokeColor=#EA6B66;exitX=0;exitY=0.5;exitDx=0;exitDy=0;" edge="1" parent="1" source="5uXWiQEfqai-mg1jJIxe-13">
          <mxGeometry relative="1" as="geometry">
            <mxPoint x="200" y="480" as="targetPoint" />
            <mxPoint x="230" y="400" as="sourcePoint" />
          </mxGeometry>
        </mxCell>
        <mxCell id="5uXWiQEfqai-mg1jJIxe-16" style="edgeStyle=orthogonalEdgeStyle;rounded=0;orthogonalLoop=1;jettySize=auto;html=1;strokeColor=#97D077;" edge="1" parent="1" source="5uXWiQEfqai-mg1jJIxe-13">
          <mxGeometry relative="1" as="geometry">
            <mxPoint x="400" y="480" as="targetPoint" />
          </mxGeometry>
        </mxCell>
        <mxCell id="5uXWiQEfqai-mg1jJIxe-13" value="Is it letter correct?" style="ellipse;whiteSpace=wrap;html=1;fillColor=#fff2cc;strokeColor=#d6b656;" vertex="1" parent="1">
          <mxGeometry x="240" y="360" width="120" height="80" as="geometry" />
        </mxCell>
        <mxCell id="5uXWiQEfqai-mg1jJIxe-17" value="&lt;font color=&quot;#97D077&quot;&gt;YES&lt;/font&gt;" style="text;html=1;strokeColor=none;fillColor=none;align=center;verticalAlign=middle;whiteSpace=wrap;rounded=0;" vertex="1" parent="1">
          <mxGeometry x="390" y="420" width="60" height="30" as="geometry" />
        </mxCell>
        <mxCell id="5uXWiQEfqai-mg1jJIxe-18" value="&lt;font color=&quot;#EA6B66&quot;&gt;NO&lt;/font&gt;" style="text;html=1;strokeColor=none;fillColor=none;align=center;verticalAlign=middle;whiteSpace=wrap;rounded=0;" vertex="1" parent="1">
          <mxGeometry x="150" y="420" width="60" height="30" as="geometry" />
        </mxCell>
        <mxCell id="5uXWiQEfqai-mg1jJIxe-30" style="edgeStyle=orthogonalEdgeStyle;rounded=0;orthogonalLoop=1;jettySize=auto;html=1;" edge="1" parent="1" source="5uXWiQEfqai-mg1jJIxe-19">
          <mxGeometry relative="1" as="geometry">
            <mxPoint x="400" y="570" as="targetPoint" />
          </mxGeometry>
        </mxCell>
        <mxCell id="5uXWiQEfqai-mg1jJIxe-19" value="show the letter/s in a word" style="rounded=1;whiteSpace=wrap;html=1;" vertex="1" parent="1">
          <mxGeometry x="340" y="480" width="120" height="60" as="geometry" />
        </mxCell>
        <mxCell id="5uXWiQEfqai-mg1jJIxe-29" style="edgeStyle=orthogonalEdgeStyle;rounded=0;orthogonalLoop=1;jettySize=auto;html=1;" edge="1" parent="1" source="5uXWiQEfqai-mg1jJIxe-25">
          <mxGeometry relative="1" as="geometry">
            <mxPoint x="200" y="570" as="targetPoint" />
          </mxGeometry>
        </mxCell>
        <mxCell id="5uXWiQEfqai-mg1jJIxe-25" value="draw a part of hangman" style="rounded=1;whiteSpace=wrap;html=1;" vertex="1" parent="1">
          <mxGeometry x="140" y="480" width="120" height="60" as="geometry" />
        </mxCell>
        <mxCell id="5uXWiQEfqai-mg1jJIxe-36" style="edgeStyle=orthogonalEdgeStyle;rounded=0;orthogonalLoop=1;jettySize=auto;html=1;" edge="1" parent="1" source="5uXWiQEfqai-mg1jJIxe-32">
          <mxGeometry relative="1" as="geometry">
            <mxPoint x="220" y="660" as="targetPoint" />
          </mxGeometry>
        </mxCell>
        <mxCell id="5uXWiQEfqai-mg1jJIxe-32" value="Is the hangman completed?" style="rounded=1;whiteSpace=wrap;html=1;" vertex="1" parent="1">
          <mxGeometry x="140" y="570" width="120" height="60" as="geometry" />
        </mxCell>
        <mxCell id="5uXWiQEfqai-mg1jJIxe-33" value="" style="endArrow=none;html=1;curved=1;exitX=0;exitY=0.5;exitDx=0;exitDy=0;startArrow=classic;startFill=1;" edge="1" parent="1" source="5uXWiQEfqai-mg1jJIxe-8">
          <mxGeometry width="50" height="50" relative="1" as="geometry">
            <mxPoint x="217.96000000000004" y="307.02" as="sourcePoint" />
            <mxPoint x="185" y="630" as="targetPoint" />
            <Array as="points">
              <mxPoint x="40" y="360" />
              <mxPoint x="-20" y="550" />
              <mxPoint x="40" y="690" />
              <mxPoint x="170" y="690" />
            </Array>
          </mxGeometry>
        </mxCell>
        <mxCell id="5uXWiQEfqai-mg1jJIxe-34" value="NO" style="text;html=1;strokeColor=none;fillColor=none;align=center;verticalAlign=middle;whiteSpace=wrap;rounded=0;" vertex="1" parent="1">
          <mxGeometry x="70" y="660" width="60" height="30" as="geometry" />
        </mxCell>
        <mxCell id="5uXWiQEfqai-mg1jJIxe-35" value="" style="endArrow=none;html=1;exitX=1;exitY=0.5;exitDx=0;exitDy=0;curved=1;startArrow=classic;startFill=1;" edge="1" parent="1" source="5uXWiQEfqai-mg1jJIxe-8" target="5uXWiQEfqai-mg1jJIxe-38">
          <mxGeometry width="50" height="50" relative="1" as="geometry">
            <mxPoint x="540" y="330" as="sourcePoint" />
            <mxPoint x="550" y="520" as="targetPoint" />
            <Array as="points">
              <mxPoint x="480" y="350" />
              <mxPoint x="550" y="410" />
              <mxPoint x="580" y="450" />
              <mxPoint x="600" y="520" />
              <mxPoint x="610" y="620" />
              <mxPoint x="580" y="680" />
              <mxPoint x="540" y="710" />
              <mxPoint x="440" y="680" />
            </Array>
          </mxGeometry>
        </mxCell>
        <mxCell id="5uXWiQEfqai-mg1jJIxe-37" value="You loose" style="rounded=0;whiteSpace=wrap;html=1;fillColor=#f8cecc;strokeColor=#b85450;" vertex="1" parent="1">
          <mxGeometry x="180" y="660" width="120" height="60" as="geometry" />
        </mxCell>
        <mxCell id="5uXWiQEfqai-mg1jJIxe-40" style="edgeStyle=orthogonalEdgeStyle;rounded=0;orthogonalLoop=1;jettySize=auto;html=1;" edge="1" parent="1" source="5uXWiQEfqai-mg1jJIxe-38">
          <mxGeometry relative="1" as="geometry">
            <mxPoint x="370" y="660" as="targetPoint" />
          </mxGeometry>
        </mxCell>
        <mxCell id="5uXWiQEfqai-mg1jJIxe-38" value="Is the word completed?" style="rounded=1;whiteSpace=wrap;html=1;" vertex="1" parent="1">
          <mxGeometry x="340" y="570" width="120" height="60" as="geometry" />
        </mxCell>
        <mxCell id="5uXWiQEfqai-mg1jJIxe-39" value="NO" style="text;html=1;strokeColor=none;fillColor=none;align=center;verticalAlign=middle;whiteSpace=wrap;rounded=0;" vertex="1" parent="1">
          <mxGeometry x="500" y="670" width="60" height="30" as="geometry" />
        </mxCell>
        <mxCell id="5uXWiQEfqai-mg1jJIxe-41" value="You win" style="rounded=0;whiteSpace=wrap;html=1;fillColor=#d5e8d4;strokeColor=#82b366;" vertex="1" parent="1">
          <mxGeometry x="310" y="660" width="120" height="60" as="geometry" />
        </mxCell>
      </root>
    </mxGraphModel>
  </diagram>
</mxfile>
